# xmcd
#
# Track frame offsets: 
#        182
#        14722
#        29042
#        44702
#        58815
#        76467
#        89705
#        108712
#        125190
#        141925
#        158562
#
# Disc length: 2253 seconds
#
# Revision: 2
# Processed by: cddbd v1.5PL3 Copyright (c) Steve Scherf et al.
# Submitted via: ExactAudioCopy v0.95a3
#
DISCID=ab08cb0b
DTITLE=Neal McCoy - The Life Of The Party
DYEAR=1999
DGENRE=Country
TTITLE0=I Was
TTITLE1=Lipstick On The Radio
TTITLE2=Only You
TTITLE3=The Girls Of Summer
TTITLE4=New Old Songs
TTITLE5=The Life Of The Party
TTITLE6=Completely
TTITLE7=That's Not Her
TTITLE8=Ain't Nothin' Like It
TTITLE9=The Strongest Man In The World
TTITLE10=Straighten Up And Fly Right
EXTD=ID3G:   2
EXTT0=
EXTT1=
EXTT2=
EXTT3=
EXTT4=
EXTT5=
EXTT6=
EXTT7=
EXTT8=
EXTT9=
EXTT10=
PLAYORDER=
